<?xml version="1.0" encoding="UTF-8"?>
<svg width="29px" height="26px" viewBox="0 0 29 26" version="1.1" xmlns="http://www.w3.org/2000/svg" xmlns:xlink="http://www.w3.org/1999/xlink">
    <title>A686DB32-89D3-49DC-9446-618E2BB4E8FB</title>
    <defs>
        <path d="M11.4578366,0 C9.81412543,0 8.41341899,1.07110228 7.8829204,2.54216308 L1.28918491,2.54216308 C0.83078725,2.5356802 0.404408733,2.77651912 0.173318028,3.17245791 C-0.0577726761,3.5683967 -0.0577726761,4.05809255 0.173318028,4.45403134 C0.404408733,4.84997013 0.83078725,5.09080905 1.28918491,5.08432616 L7.8829204,5.08432616 C8.41341899,6.55538696 9.81412543,7.62648925 11.4578366,7.62648925 C13.1015484,7.62648925 14.5022548,6.55538696 15.0327534,5.08432616 L26.7108151,5.08432616 C27.1692128,5.09080905 27.5955913,4.84997013 27.826682,4.45403134 C28.0577727,4.05809255 28.0577727,3.5683967 27.826682,3.17245791 C27.5955913,2.77651912 27.1692128,2.5356802 26.7108151,2.54216308 L15.0327534,2.54216308 C14.5022548,1.07110228 13.1015484,0 11.4578366,0 Z M11.4578366,2.54216308 C12.1748918,2.54216308 12.7289181,3.09618939 12.7289181,3.81324462 C12.7289181,4.53029985 12.1748918,5.08432616 11.4578366,5.08432616 C10.740782,5.08432616 10.1867557,4.53029985 10.1867557,3.81324462 C10.1867557,3.09618939 10.740782,2.54216308 11.4578366,2.54216308 Z M19.0843258,8.62648925 C17.440614,8.62648925 16.0399076,9.69759153 15.509409,11.1686523 L1.28918491,11.1686523 C0.83078725,11.1621694 0.404408733,11.4030084 0.173318028,11.7989472 C-0.0577726761,12.1948859 -0.0577726761,12.6845818 0.173318028,13.0805206 C0.404408733,13.4764594 0.83078725,13.7172983 1.28918491,13.7108154 L15.509409,13.7108154 C16.0399076,15.1818762 17.440614,16.2529785 19.0843258,16.2529785 C20.7280377,16.2529785 22.1287441,15.1818762 22.6592427,13.7108154 L26.7108151,13.7108154 C27.1692128,13.7172983 27.5955913,13.4764594 27.826682,13.0805206 C28.0577727,12.6845818 28.0577727,12.1948859 27.826682,11.7989472 C27.5955913,11.4030084 27.1692128,11.1621694 26.7108151,11.1686523 L22.6592427,11.1686523 C22.1287441,9.69759153 20.7280377,8.62648925 19.0843258,8.62648925 L19.0843258,8.62648925 Z M19.0843258,11.1686523 C19.8013811,11.1686523 20.3554074,11.7226786 20.3554074,12.4397339 C20.3554074,13.1567891 19.8013811,13.7108154 19.0843258,13.7108154 C18.3930736,13.7108154 17.8660832,13.1911846 17.8281414,12.5117279 C17.8309563,12.4629463 17.8309563,12.4140429 17.8281414,12.3652612 C17.867278,11.6870502 18.3939252,11.1686523 19.0843258,11.1686523 L19.0843258,11.1686523 Z M8.91567415,17.2529785 C7.26537815,17.2529785 5.85879931,18.3323174 5.33330878,19.8125173 C5.25703781,19.7997143 5.1797576,19.7938983 5.10242953,19.7951416 L1.28918491,19.7951416 C0.83078725,19.7886587 0.404408733,20.0294976 0.173318028,20.4254364 C-0.0577726761,20.8213752 -0.0577726761,21.311071 0.173318028,21.7070098 C0.404408733,22.1029486 0.83078725,22.3437875 1.28918491,22.3373047 L5.10242953,22.3373047 C5.17983247,22.337738 5.25711322,22.3311008 5.33330878,22.3174758 C5.85816377,23.7988069 7.26455194,24.8794677 8.91567415,24.8794677 C10.559386,24.8794677 11.9600918,23.8083655 12.4905904,22.3373047 L26.7108151,22.3373047 C27.1692128,22.3437875 27.5955913,22.1029486 27.826682,21.7070098 C28.0577727,21.311071 28.0577727,20.8213752 27.826682,20.4254364 C27.5955913,20.0294976 27.1692128,19.7886587 26.7108151,19.7951416 L12.4905904,19.7951416 C11.9600918,18.3240808 10.559386,17.2529785 8.91567415,17.2529785 Z M8.91567415,19.7951416 C9.63272938,19.7951416 10.1867557,20.3491679 10.1867557,21.0662231 C10.1867557,21.7832783 9.63272938,22.3373047 8.91567415,22.3373047 C8.19861892,22.3373047 7.64459261,21.7832783 7.64459261,21.0662231 C7.64459261,20.3491679 8.19861892,19.7951416 8.91567415,19.7951416 Z" id="path-1"></path>
    </defs>
    <g id="Page-1" stroke="none" stroke-width="1" fill="none" fill-rule="evenodd">
        <g id="06_Gallery_Filter_Clear_Option" transform="translate(-1679.000000, -68.000000)">
            <g id="Atom/Button/Default/button_Secondary_icon" transform="translate(1649.500000, 50.000000)">
                <g id="Graphics-/-Base-Icons-/-more_info" transform="translate(30.000000, 18.000000)">
                    <g id="Filterv2" transform="translate(0.000000, 0.400000)">
                        <mask id="mask-2" fill="white">
                            <use xlink:href="#path-1"></use>
                        </mask>
                        <use id="Filter" fill="#A0A0A0" xlink:href="#path-1"></use>
                    </g>
                </g>
            </g>
        </g>
    </g>
</svg>